<svg xmlns="http://www.w3.org/2000/svg" width="1080" height="420" viewBox="0 0 1080 420">
<rect width="100%" height="100%" fill="#ffffff"/>
<text x="40" y="34" font-family="Arial, sans-serif" font-size="22" font-weight="700" fill="#111827">760m normal throughput, stable-window metrics</text>
<text x="40" y="56" font-family="Arial, sans-serif" font-size="13" fill="#4b5563">Bars use log-parsed warmup-excluded averages, not single final iterations.</text>
<line x1="230.0" y1="76" x2="230.0" y2="328" stroke="#e5e7eb" stroke-width="1"/>
<text x="230.0" y="352" text-anchor="middle" font-family="Arial, sans-serif" font-size="11" fill="#6b7280">0k</text>
<line x1="373.4" y1="76" x2="373.4" y2="328" stroke="#e5e7eb" stroke-width="1"/>
<text x="373.4" y="352" text-anchor="middle" font-family="Arial, sans-serif" font-size="11" fill="#6b7280">10k</text>
<line x1="516.7" y1="76" x2="516.7" y2="328" stroke="#e5e7eb" stroke-width="1"/>
<text x="516.7" y="352" text-anchor="middle" font-family="Arial, sans-serif" font-size="11" fill="#6b7280">20k</text>
<line x1="660.1" y1="76" x2="660.1" y2="328" stroke="#e5e7eb" stroke-width="1"/>
<text x="660.1" y="352" text-anchor="middle" font-family="Arial, sans-serif" font-size="11" fill="#6b7280">30k</text>
<line x1="803.5" y1="76" x2="803.5" y2="328" stroke="#e5e7eb" stroke-width="1"/>
<text x="803.5" y="352" text-anchor="middle" font-family="Arial, sans-serif" font-size="11" fill="#6b7280">40k</text>
<line x1="946.8" y1="76" x2="946.8" y2="328" stroke="#e5e7eb" stroke-width="1"/>
<text x="946.8" y="352" text-anchor="middle" font-family="Arial, sans-serif" font-size="11" fill="#6b7280">50k</text>
<text x="216" y="91.8" text-anchor="end" font-family="Arial, sans-serif" font-size="13" fill="#111827">MBS 2</text>
<text x="216" y="106.8" text-anchor="end" font-family="Arial, sans-serif" font-size="10" fill="#6b7280">avg_last_half; 20 iters</text>
<rect x="230" y="76.0" width="231.0" height="37.6" rx="4" fill="#2563eb"/>
<text x="469.0" y="98.8" font-family="Arial, sans-serif" font-size="12" fill="#111827">16,112</text>
<text x="216" y="145.4" text-anchor="end" font-family="Arial, sans-serif" font-size="13" fill="#111827">MBS 4 baseline</text>
<text x="216" y="160.4" text-anchor="end" font-family="Arial, sans-serif" font-size="10" fill="#6b7280">avg_last_half; 20 iters</text>
<rect x="230" y="129.6" width="466.9" height="37.6" rx="4" fill="#059669"/>
<text x="704.9" y="152.4" font-family="Arial, sans-serif" font-size="12" fill="#111827">32,565</text>
<text x="216" y="199.0" text-anchor="end" font-family="Arial, sans-serif" font-size="13" fill="#111827">No dist opt</text>
<text x="216" y="214.0" text-anchor="end" font-family="Arial, sans-serif" font-size="10" fill="#6b7280">avg_last_half; 20 iters</text>
<rect x="230" y="183.2" width="466.7" height="37.6" rx="4" fill="#64748b"/>
<text x="704.7" y="206.0" font-family="Arial, sans-serif" font-size="12" fill="#111827">32,555</text>
<text x="216" y="252.6" text-anchor="end" font-family="Arial, sans-serif" font-size="13" fill="#111827">MBS 8</text>
<text x="216" y="267.6" text-anchor="end" font-family="Arial, sans-serif" font-size="10" fill="#6b7280">avg_last_half; 20 iters</text>
<rect x="230" y="236.8" width="210.2" height="37.6" rx="4" fill="#d97706"/>
<text x="448.2" y="259.6" font-family="Arial, sans-serif" font-size="12" fill="#111827">14,659</text>
<text x="216" y="306.2" text-anchor="end" font-family="Arial, sans-serif" font-size="13" fill="#111827">MBS 4, 50 steps</text>
<text x="216" y="321.2" text-anchor="end" font-family="Arial, sans-serif" font-size="10" fill="#6b7280">avg_last_half; 50 iters</text>
<rect x="230" y="290.4" width="627.1" height="37.6" rx="4" fill="#7c3aed"/>
<text x="865.1" y="313.2" font-family="Arial, sans-serif" font-size="12" fill="#111827">43,742</text>
<text x="40" y="396" font-family="Arial, sans-serif" font-size="12" fill="#4b5563">Use this chart for normal-partition claims; timeout/failed/debug runs are excluded.</text>
</svg>
