<svg xmlns="http://www.w3.org/2000/svg" width="1080" height="518" viewBox="0 0 1080 518">
<rect width="100%" height="100%" fill="#ffffff"/>
<text x="40" y="34" font-family="Arial, sans-serif" font-size="22" font-weight="700" fill="#111827">760m normal throughput, stable-window metrics</text>
<text x="40" y="56" font-family="Arial, sans-serif" font-size="13" fill="#4b5563">Bars use log-parsed warmup-excluded averages, not single final iterations.</text>
<line x1="230.0" y1="76" x2="230.0" y2="426" stroke="#e5e7eb" stroke-width="1"/>
<text x="230.0" y="450" text-anchor="middle" font-family="Arial, sans-serif" font-size="11" fill="#6b7280">0k</text>
<line x1="335.2" y1="76" x2="335.2" y2="426" stroke="#e5e7eb" stroke-width="1"/>
<text x="335.2" y="450" text-anchor="middle" font-family="Arial, sans-serif" font-size="11" fill="#6b7280">10k</text>
<line x1="440.4" y1="76" x2="440.4" y2="426" stroke="#e5e7eb" stroke-width="1"/>
<text x="440.4" y="450" text-anchor="middle" font-family="Arial, sans-serif" font-size="11" fill="#6b7280">20k</text>
<line x1="545.5" y1="76" x2="545.5" y2="426" stroke="#e5e7eb" stroke-width="1"/>
<text x="545.5" y="450" text-anchor="middle" font-family="Arial, sans-serif" font-size="11" fill="#6b7280">30k</text>
<line x1="650.7" y1="76" x2="650.7" y2="426" stroke="#e5e7eb" stroke-width="1"/>
<text x="650.7" y="450" text-anchor="middle" font-family="Arial, sans-serif" font-size="11" fill="#6b7280">40k</text>
<line x1="755.9" y1="76" x2="755.9" y2="426" stroke="#e5e7eb" stroke-width="1"/>
<text x="755.9" y="450" text-anchor="middle" font-family="Arial, sans-serif" font-size="11" fill="#6b7280">50k</text>
<line x1="861.1" y1="76" x2="861.1" y2="426" stroke="#e5e7eb" stroke-width="1"/>
<text x="861.1" y="450" text-anchor="middle" font-family="Arial, sans-serif" font-size="11" fill="#6b7280">60k</text>
<line x1="966.2" y1="76" x2="966.2" y2="426" stroke="#e5e7eb" stroke-width="1"/>
<text x="966.2" y="450" text-anchor="middle" font-family="Arial, sans-serif" font-size="11" fill="#6b7280">70k</text>
<text x="216" y="91.1" text-anchor="end" font-family="Arial, sans-serif" font-size="13" fill="#111827">MBS 2</text>
<text x="216" y="106.1" text-anchor="end" font-family="Arial, sans-serif" font-size="10" fill="#6b7280">avg_last_half; 20 iters</text>
<rect x="230" y="76.0" width="169.5" height="36.3" rx="4" fill="#2563eb"/>
<text x="407.5" y="98.1" font-family="Arial, sans-serif" font-size="12" fill="#111827">16,112</text>
<text x="216" y="143.4" text-anchor="end" font-family="Arial, sans-serif" font-size="13" fill="#111827">GBS 128</text>
<text x="216" y="158.4" text-anchor="end" font-family="Arial, sans-serif" font-size="10" fill="#6b7280">avg_last_half; 30 iters</text>
<rect x="230" y="128.3" width="239.2" height="36.3" rx="4" fill="#059669"/>
<text x="477.2" y="150.4" font-family="Arial, sans-serif" font-size="12" fill="#111827">22,743</text>
<text x="216" y="195.7" text-anchor="end" font-family="Arial, sans-serif" font-size="13" fill="#111827">MBS 4 baseline</text>
<text x="216" y="210.7" text-anchor="end" font-family="Arial, sans-serif" font-size="10" fill="#6b7280">avg_last_half; 20 iters</text>
<rect x="230" y="180.6" width="342.5" height="36.3" rx="4" fill="#64748b"/>
<text x="580.5" y="202.7" font-family="Arial, sans-serif" font-size="12" fill="#111827">32,565</text>
<text x="216" y="248.0" text-anchor="end" font-family="Arial, sans-serif" font-size="13" fill="#111827">No dist opt</text>
<text x="216" y="263.0" text-anchor="end" font-family="Arial, sans-serif" font-size="10" fill="#6b7280">avg_last_half; 20 iters</text>
<rect x="230" y="232.9" width="342.4" height="36.3" rx="4" fill="#d97706"/>
<text x="580.4" y="255.0" font-family="Arial, sans-serif" font-size="12" fill="#111827">32,555</text>
<text x="216" y="300.3" text-anchor="end" font-family="Arial, sans-serif" font-size="13" fill="#111827">MBS 8</text>
<text x="216" y="315.3" text-anchor="end" font-family="Arial, sans-serif" font-size="10" fill="#6b7280">avg_last_half; 20 iters</text>
<rect x="230" y="285.1" width="154.2" height="36.3" rx="4" fill="#7c3aed"/>
<text x="392.2" y="307.3" font-family="Arial, sans-serif" font-size="12" fill="#111827">14,659</text>
<text x="216" y="352.6" text-anchor="end" font-family="Arial, sans-serif" font-size="13" fill="#111827">MBS 4, 50 steps</text>
<text x="216" y="367.6" text-anchor="end" font-family="Arial, sans-serif" font-size="10" fill="#6b7280">avg_last_half; 50 iters</text>
<rect x="230" y="337.4" width="460.1" height="36.3" rx="4" fill="#0891b2"/>
<text x="698.1" y="359.6" font-family="Arial, sans-serif" font-size="12" fill="#111827">43,742</text>
<text x="216" y="404.9" text-anchor="end" font-family="Arial, sans-serif" font-size="13" fill="#111827">GBS 512</text>
<text x="216" y="419.9" text-anchor="end" font-family="Arial, sans-serif" font-size="10" fill="#6b7280">avg_last_half; 30 iters</text>
<rect x="230" y="389.7" width="627.1" height="36.3" rx="4" fill="#2563eb"/>
<text x="865.1" y="411.9" font-family="Arial, sans-serif" font-size="12" fill="#111827">59,626</text>
<text x="40" y="494" font-family="Arial, sans-serif" font-size="12" fill="#4b5563">Use this chart for normal-partition claims; timeout/failed/debug runs are excluded.</text>
</svg>
